<svg id="visual" viewBox="0 0 900 900" width="900" height="900" xmlns="http://www.w3.org/2000/svg" xmlns:xlink="http://www.w3.org/1999/xlink" version="1.1"><rect x="0" y="0" width="900" height="900" fill="#140021"></rect><path d="M0 379L129 379L129 517L257 517L257 464L386 464L386 542L514 542L514 391L643 391L643 555L771 555L771 493L900 493L900 352L900 901L900 901L771 901L771 901L643 901L643 901L514 901L514 901L386 901L386 901L257 901L257 901L129 901L129 901L0 901Z" fill="#00e8ff"></path><path d="M0 568L129 568L129 755L257 755L257 725L386 725L386 540L514 540L514 543L643 543L643 726L771 726L771 595L900 595L900 635L900 901L900 901L771 901L771 901L643 901L643 901L514 901L514 901L386 901L386 901L257 901L257 901L129 901L129 901L0 901Z" fill="#3e8056"></path></svg>